<svg width="24" height="24" viewBox="0 0 24 24" fill="none" xmlns="http://www.w3.org/2000/svg">
<rect y="24" width="24" height="24" rx="12" transform="rotate(-90 0 24)" fill="#1D1D1D"/>
<rect x="0.25" y="23.75" width="23.5" height="23.5" rx="11.75" transform="rotate(-90 0.25 23.75)" stroke="#E1E1E1" stroke-opacity="0.42" stroke-width="0.5"/>
<path d="M9.52876 6.86215C9.77284 6.61807 10.1588 6.60301 10.4207 6.81658L10.4715 6.86215L15.1381 11.5288C15.3985 11.7892 15.3985 12.2112 15.1381 12.4715L10.4715 17.1382C10.2111 17.3985 9.78911 17.3985 9.52876 17.1382C9.26841 16.8778 9.26841 16.4558 9.52876 16.1955L13.7241 12.0002L9.52876 7.80486L9.48319 7.75408C9.26962 7.49223 9.28468 7.10623 9.52876 6.86215Z" fill="#E1E1E1" fill-opacity="0.42"/>
</svg>
