<svg width="24" height="24" viewBox="0 0 24 24" fill="none" xmlns="http://www.w3.org/2000/svg">
<rect x="24" width="24" height="24" rx="12" transform="rotate(90 24 0)" fill="white"/>
<path d="M1.25 12C1.25 6.07 6.07 1.25 12 1.25C17.93 1.25 22.75 6.07 22.75 12C22.75 17.93 17.93 22.75 12 22.75C6.07 22.75 1.25 17.93 1.25 12ZM21.25 12C21.25 6.9 17.1 2.75 12 2.75C6.9 2.75 2.75 6.9 2.75 12C2.75 17.1 6.9 21.25 12 21.25C17.1 21.25 21.25 17.1 21.25 12Z" fill="black"/>
<path d="M7.71996 13.26C7.71996 13.07 7.78997 12.88 7.93997 12.73L11.47 9.20004C11.76 8.91004 12.24 8.91004 12.53 9.20004L16.06 12.73C16.35 13.02 16.35 13.5 16.06 13.79C15.77 14.08 15.29 14.08 15 13.79L12 10.79L8.99997 13.79C8.70997 14.08 8.22997 14.08 7.93997 13.79C7.78997 13.65 7.71996 13.46 7.71996 13.26Z" fill="black"/>
</svg>
