<svg width="16" height="18" viewBox="0 0 16 18" fill="none" xmlns="http://www.w3.org/2000/svg">
<path d="M14.3341 11.376C14.6787 11.1462 15.1444 11.2393 15.3741 11.584C15.6039 11.9286 15.5108 12.3942 15.1661 12.624L8.41612 17.124C8.19558 17.271 7.91661 17.2893 7.6815 17.1789L7.58409 17.124L0.834091 12.624L0.772568 12.5786C0.478988 12.3369 0.410619 11.9072 0.626084 11.584C0.841472 11.2609 1.26424 11.1586 1.6002 11.3364L1.66612 11.376L8.00011 15.5984L14.3341 11.376ZM14.3341 8.37595C14.6787 8.14619 15.1444 8.23931 15.3741 8.58396C15.6039 8.92861 15.5108 9.39423 15.1661 9.624L8.41612 14.124C8.19558 14.271 7.91661 14.2893 7.6815 14.1789L7.58409 14.124L0.834091 9.624L0.772568 9.57859C0.478988 9.33689 0.410619 8.90716 0.626084 8.58396C0.841472 8.26088 1.26424 8.15863 1.6002 8.3364L1.66612 8.37595L8.00011 12.5984L14.3341 8.37595ZM7.6815 0.821021C7.91661 0.710625 8.19558 0.728925 8.41612 0.875952L15.1661 5.37595C15.3748 5.51505 15.5001 5.74921 15.5001 5.99998C15.5001 6.25074 15.3748 6.4849 15.1661 6.624L8.41612 11.124C8.19558 11.271 7.91661 11.2893 7.6815 11.1789L7.58409 11.124L0.834091 6.624C0.625442 6.4849 0.500107 6.25074 0.500107 5.99998C0.500107 5.74921 0.625442 5.51505 0.834091 5.37595L7.58409 0.875952L7.6815 0.821021ZM2.60216 5.99998L8.00011 9.59836L13.3981 5.99998L8.00011 2.40085L2.60216 5.99998Z" fill="#ED1C24"/>
</svg>
