<svg width="62" height="52" viewBox="0 0 62 52" fill="none" xmlns="http://www.w3.org/2000/svg">
<path d="M10.5077 1.93701H30.0081C32.2177 1.93701 34.3368 2.95195 35.8992 4.75854C37.4616 6.56514 38.3394 9.01541 38.3394 11.5703V21.0949C38.3394 23.6499 37.4616 26.1001 35.8992 27.9067C34.3368 29.7133 32.2177 30.7283 30.0081 30.7283H15.1182L8.5921 37.6204V30.4715C6.76578 29.9723 5.13866 28.7748 3.97427 27.0731C2.80988 25.3713 2.17639 23.2649 2.1764 21.0949V11.5703C2.1764 9.01541 3.05416 6.56514 4.61657 4.75854C6.17899 2.95195 8.29809 1.93701 10.5077 1.93701Z" fill="#2E2E2E"/>
<path d="M8.59437 39.0073C8.89678 39.0079 9.18843 38.8775 9.41183 38.6419L15.5918 32.1183H31.0264C33.5558 32.1183 35.9816 30.9565 37.7701 28.8884C39.5587 26.8204 40.5635 24.0155 40.5635 21.0908V11.5646C40.5635 8.63994 39.5587 5.83505 37.7701 3.76699C35.9816 1.69893 33.5558 0.537109 31.0264 0.537109H10.5099C7.98057 0.537109 5.55479 1.69893 3.76625 3.76699C1.97771 5.83505 0.972919 8.63994 0.972919 11.5646V21.0892C0.972488 23.3821 1.59018 25.6182 2.74007 27.4862C3.88995 29.3542 5.51484 30.7614 7.38861 31.5118V37.6147C7.38897 37.9848 7.51626 38.3396 7.74256 38.6012C7.96886 38.8629 8.27568 39.0101 8.59572 39.0105L8.59437 39.0073ZM31.0264 3.32707C32.9152 3.32957 34.726 4.19825 36.0616 5.74255C37.3972 7.28685 38.1484 9.38065 38.1506 11.5646V21.0892C38.1484 23.2732 37.3972 25.367 36.0616 26.9113C34.726 28.4556 32.9152 29.3243 31.0264 29.3268H15.1204C14.8181 29.3265 14.5265 29.4568 14.303 29.6922L9.79875 34.4467V30.4658C9.79862 30.1513 9.70666 29.8461 9.53776 29.5996C9.36886 29.3531 9.13293 29.1798 8.86821 29.1078C7.32139 28.682 5.94128 27.6727 4.94577 26.2391C3.93021 24.7804 3.38026 22.9618 3.3885 21.0892V11.5646C3.39067 9.38065 4.14195 7.28685 5.47752 5.74255C6.81309 4.19825 8.62388 3.32957 10.5127 3.32707H31.0264Z" fill="white"/>
<path d="M49.6814 7.8999H26.4867C23.8585 7.8999 21.338 9.10711 19.4796 11.256C17.6212 13.4048 16.5771 16.3193 16.5771 19.3582V30.6872C16.5771 33.7261 17.6212 36.6406 19.4796 38.7894C21.338 40.9383 23.8585 42.1455 26.4867 42.1455H44.1975L51.9599 50.3433V41.84C54.1322 41.2463 56.0675 39.822 57.4525 37.7978C58.8375 35.7737 59.591 33.2682 59.591 30.6872V19.3582C59.591 16.3193 58.5469 13.4048 56.6885 11.256C54.8301 9.10711 52.3096 7.8999 49.6814 7.8999Z" fill="#2E2E2E"/>
<path d="M51.961 51.996C51.6013 51.9967 51.2544 51.8416 50.9887 51.5613L43.6379 43.8019H25.2793C22.2708 43.8019 19.3854 42.42 17.2581 39.9601C15.1307 37.5003 13.9355 34.164 13.9355 30.6853V19.3544C13.9355 15.8757 15.1307 12.5394 17.2581 10.0796C19.3854 7.61972 22.2708 6.23779 25.2793 6.23779H49.6825C52.6911 6.23779 55.5764 7.61972 57.7038 10.0796C59.8312 12.5394 61.0263 15.8757 61.0263 19.3544V30.6834C61.0268 33.4107 60.2921 36.0703 58.9244 38.2922C57.5567 40.5142 55.624 42.1879 53.3952 43.0805V50.3396C53.3948 50.7797 53.2434 51.2017 52.9742 51.513C52.705 51.8242 52.3401 51.9993 51.9594 51.9997L51.961 51.996ZM25.2793 9.5563C23.0327 9.55927 20.8789 10.5925 19.2903 12.4294C17.7017 14.2662 16.8081 16.7567 16.8055 19.3544V30.6834C16.8081 33.2811 17.7017 35.7716 19.2903 37.6084C20.8789 39.4453 23.0327 40.4785 25.2793 40.4815H44.1987C44.5583 40.4812 44.9051 40.6362 45.171 40.9162L50.5285 46.5714V41.8363C50.5286 41.4622 50.638 41.0992 50.8389 40.806C51.0398 40.5129 51.3204 40.3067 51.6353 40.221C53.4752 39.7146 55.1167 38.514 56.3008 36.8089C57.5088 35.0739 58.1629 32.9107 58.1531 30.6834V19.3544C58.1505 16.7567 57.2569 14.2662 55.6683 12.4294C54.0798 10.5925 51.9259 9.55927 49.6793 9.5563H25.2793Z" fill="white"/>
<path d="M28.3841 26.7818C29.8192 26.7818 30.9826 25.6184 30.9826 24.1832C30.9826 22.7479 29.8192 21.5845 28.3841 21.5845C26.949 21.5845 25.7856 22.7479 25.7856 24.1832C25.7856 25.6184 26.949 26.7818 28.3841 26.7818Z" fill="white"/>
<path d="M37.4769 26.7818C38.912 26.7818 40.0754 25.6184 40.0754 24.1832C40.0754 22.7479 38.912 21.5845 37.4769 21.5845C36.0418 21.5845 34.8784 22.7479 34.8784 24.1832C34.8784 25.6184 36.0418 26.7818 37.4769 26.7818Z" fill="white"/>
<path d="M46.5809 26.7818C48.016 26.7818 49.1794 25.6184 49.1794 24.1832C49.1794 22.7479 48.016 21.5845 46.5809 21.5845C45.1458 21.5845 43.9824 22.7479 43.9824 24.1832C43.9824 25.6184 45.1458 26.7818 46.5809 26.7818Z" fill="white"/>
</svg>
