<svg width="20" height="18" viewBox="0 0 20 18" fill="none" xmlns="http://www.w3.org/2000/svg">
<path d="M17.9971 5.47373C17.994 5.2733 17.9881 5.10947 17.9766 4.96787C17.96 4.76451 17.9343 4.6568 17.9121 4.59482L17.8916 4.54599C17.82 4.4054 17.7153 4.28403 17.5879 4.1915L17.4531 4.10947C17.4036 4.08426 17.3031 4.04569 17.0322 4.02353C16.749 4.00038 16.3764 4.00009 15.7998 4.00009H2V13.7999C2 14.3765 2.00029 14.7491 2.02344 15.0323C2.0456 15.3032 2.08417 15.4037 2.10938 15.4532L2.19141 15.588C2.28394 15.7154 2.40531 15.8201 2.5459 15.8917L2.59375 15.9122C2.65546 15.9344 2.76296 15.96 2.9668 15.9767C3.24974 15.9998 3.62182 16.0001 4.19727 16.0001H15.8027C16.3779 16.0001 16.7496 15.9997 17.0322 15.9767C17.3025 15.9546 17.4037 15.9168 17.4531 15.8917L17.5879 15.8087C17.7151 15.7162 17.8199 15.5949 17.8916 15.4542L17.9121 15.4054C17.9344 15.3435 17.9599 15.2359 17.9766 15.0323C17.9881 14.8905 17.994 14.7262 17.9971 14.5255L18 13.7999V6.20029L17.9971 5.47373ZM20 13.7999L19.9971 14.5577C19.9933 14.7904 19.9854 15.0037 19.9697 15.1954C19.9415 15.541 19.8833 15.885 19.7402 16.2188L19.6729 16.3614C19.4211 16.8556 19.0381 17.2696 18.5684 17.5577L18.3613 17.6729C17.9833 17.8656 17.5902 17.9375 17.1953 17.9698C16.8123 18.0011 16.345 18.0001 15.8027 18.0001H4.19727C3.6548 18.0001 3.187 18.0011 2.80372 17.9698C2.45828 17.9416 2.11417 17.8834 1.78028 17.7403L1.6377 17.6729C1.1432 17.4209 0.730169 17.0378 0.442387 16.5685L0.327153 16.3614C0.134508 15.9833 0.0625992 15.5905 0.0302779 15.1954C-0.00107174 14.8118 4.44196e-06 14.3434 4.44196e-06 13.7999V3.00009C4.44196e-06 1.34324 1.34315 9.32453e-05 3 9.32453e-05H6.67481C7.11603 9.04542e-05 7.50022 -0.00610979 7.87207 0.0831011L8.09961 0.147554C8.32393 0.220581 8.53858 0.319495 8.73926 0.442476L8.85938 0.520601C9.13324 0.711635 9.37159 0.957617 9.64454 1.23056L10.4141 2.00009H15.7998C16.3434 2.00009 16.8117 1.99902 17.1953 2.03037C17.5905 2.06269 17.9832 2.1346 18.3613 2.32724L18.5684 2.44248C19.0377 2.73026 19.4208 3.14328 19.6729 3.63779L19.7402 3.78037C19.8835 4.1145 19.9415 4.45887 19.9697 4.80478C20.0011 5.18845 20 5.65674 20 6.20029V13.7999Z" fill="#2E2E2E"/>
</svg>
