<svg width="24" height="24" viewBox="0 0 24 24" fill="none" xmlns="http://www.w3.org/2000/svg">
<path d="M20 7.19727C20 6.62182 19.9997 6.24974 19.9766 5.9668C19.9599 5.76296 19.9343 5.65546 19.9121 5.59375L19.8916 5.5459C19.82 5.40531 19.7159 5.28379 19.5889 5.19141L19.4541 5.10938C19.4046 5.08417 19.3037 5.04661 19.0322 5.02442C18.8906 5.01285 18.7268 5.00602 18.5264 5.00293L17.7998 5H6.2002C5.62366 5 5.25124 5.00127 4.96778 5.02442C4.76443 5.04103 4.65672 5.06568 4.59473 5.08789L4.5459 5.10938C4.40473 5.18133 4.28365 5.28519 4.19141 5.41211L4.10938 5.5459C4.08422 5.59528 4.04662 5.69598 4.02442 5.96778C4.00127 6.25124 4 6.62366 4 7.2002V14.2969L7.00879 10.7871L7.00977 10.7852L7.30274 10.4473C7.39735 10.3406 7.48855 10.2412 7.57618 10.1553C7.75815 9.9768 7.99743 9.77888 8.32129 9.66407L8.48829 9.61231C8.82633 9.52484 9.18129 9.52797 9.51758 9.62012L9.6836 9.67383L9.80079 9.72168C10.0642 9.84265 10.2646 10.0172 10.4219 10.1758C10.595 10.3503 10.7835 10.5771 10.9805 10.8135L13.6514 14.0195L13.8975 14.3125C13.9627 14.3884 14.0138 14.4449 14.0586 14.4902C14.0615 14.4931 14.0647 14.4954 14.0674 14.4981C14.0711 14.495 14.0759 14.4928 14.0801 14.4893C14.1782 14.4065 14.3044 14.2806 14.5313 14.0537L15.0283 13.5566C15.2348 13.3502 15.4338 13.1502 15.6143 12.9981C15.8027 12.8392 16.0452 12.6667 16.3623 12.5752L16.5273 12.5352C16.8593 12.4693 17.2018 12.4889 17.5225 12.5908L17.6807 12.6494L17.791 12.6992C18.0398 12.8237 18.2282 12.995 18.377 13.1514C18.5396 13.3224 18.7151 13.5425 18.8975 13.7705L20 15.1484V7.19727ZM8.97657 11.584C8.92705 11.6326 8.87064 11.6933 8.79883 11.7744L8.52832 12.0869L8.52735 12.0879L4.00293 17.3652C4.00548 17.6719 4.01103 17.8971 4.02832 18.0791C4.05076 18.3151 4.08585 18.4069 4.10938 18.4531L4.19141 18.5879C4.284 18.7155 4.40547 18.8201 4.5459 18.8916L4.59375 18.9121C4.65546 18.9343 4.76296 18.9599 4.9668 18.9766C5.24974 18.9997 5.62182 19 6.19727 19H17.8037C18.3791 19 18.7505 18.9997 19.0332 18.9766C19.3042 18.9544 19.4048 18.9167 19.4541 18.8916L19.5879 18.8086C19.7147 18.7163 19.8195 18.5946 19.8916 18.4531L19.915 18.3955C19.9248 18.3669 19.9338 18.3294 19.9434 18.2793L17.3359 15.0205C17.1321 14.7657 17.0177 14.6239 16.9277 14.5293C16.9236 14.5249 16.9188 14.5214 16.915 14.5176C16.9114 14.5206 16.9074 14.5239 16.9033 14.5273C16.8032 14.6117 16.6741 14.7399 16.4434 14.9707L15.9463 15.4678C15.7436 15.6704 15.5479 15.8675 15.3701 16.0176C15.2075 16.1548 15.0043 16.302 14.7471 16.3984L14.6328 16.4365C14.2605 16.5463 13.8626 16.5466 13.4883 16.4336L13.3301 16.3789C13.028 16.2591 12.8059 16.0678 12.6357 15.8955C12.5543 15.8131 12.4699 15.7183 12.3828 15.6172L12.1152 15.2998L9.44336 12.0947C9.22362 11.831 9.09974 11.6826 9.00196 11.584C8.99768 11.5797 8.99311 11.5761 8.98926 11.5723C8.98547 11.5759 8.98076 11.5799 8.97657 11.584ZM13 9C13 7.89543 13.8954 7 15 7C16.1046 7 17 7.89543 17 9C17 10.1046 16.1046 11 15 11C13.8954 11 13 10.1046 13 9ZM22 16.8027C22 17.1899 21.997 17.5363 21.9863 17.8379C22.0101 17.9836 22.0001 18.1321 21.96 18.2734C21.9299 18.5875 21.8742 18.8988 21.7481 19.2002L21.6729 19.3613C21.4214 19.8549 21.0388 20.269 20.5684 20.5576L20.3623 20.6729C19.9843 20.8655 19.5911 20.9374 19.1963 20.9697C18.8132 21.0011 18.3461 21 17.8037 21H6.19727C5.6548 21 5.187 21.0011 4.80372 20.9697C4.45828 20.9415 4.11417 20.8834 3.78028 20.7402L3.6377 20.6729C3.14283 20.4207 2.73009 20.0369 2.44239 19.5674L2.32715 19.3613C2.1461 19.006 2.0723 18.6386 2.03711 18.2686C2.02008 18.0893 2.01081 17.8933 2.00586 17.6816L2 17.001V7.2002C2 6.65664 1.99893 6.18845 2.03028 5.80469C2.06258 5.40941 2.13437 5.01605 2.32715 4.6377L2.44239 4.43165C2.73057 3.96158 3.14368 3.57891 3.6377 3.32715L3.78028 3.25977C4.1144 3.11656 4.45886 3.05854 4.80469 3.03028C5.18845 2.99893 5.65664 3 6.2002 3H17.7998L18.5576 3.00391C18.7905 3.00763 19.0035 3.0146 19.1953 3.03028C19.5906 3.06259 19.984 3.13441 20.3623 3.32715L20.5684 3.44239C21.038 3.73031 21.4209 4.14336 21.6729 4.6377L21.7402 4.78028C21.8834 5.11417 21.9415 5.45828 21.9697 5.80372C22.0011 6.187 22 6.6548 22 7.19727V16.8027Z" fill="#2E2E2E"/>
</svg>
