<svg width="36" height="36" viewBox="0 0 36 36" fill="none" xmlns="http://www.w3.org/2000/svg">
<path d="M18.728 32.0608C18.2751 32.3123 17.7249 32.3123 17.272 32.0608L18 32.2494L18.728 32.0608ZM33 14.2497C32.9999 19.4499 29.157 23.9633 25.7461 26.9953C23.9925 28.5541 22.2463 29.8153 20.9414 30.6853C20.2875 31.1212 19.741 31.4617 19.355 31.6946C19.1619 31.811 19.0089 31.9011 18.9023 31.9626C18.8491 31.9934 18.807 32.0164 18.7778 32.0329C18.7637 32.041 18.7524 32.0474 18.7441 32.052C18.7402 32.0542 18.7339 32.0578 18.7339 32.0578L18.731 32.0593L18.728 32.0608L18 32.2494L17.272 32.0608L17.269 32.0593L17.2661 32.0578C17.2661 32.0578 17.2598 32.0542 17.2559 32.052C17.2476 32.0474 17.2363 32.041 17.2222 32.0329C17.193 32.0164 17.1509 31.9934 17.0977 31.9626C16.9911 31.9011 16.8381 31.811 16.645 31.6946C16.259 31.4617 15.7125 31.1212 15.0586 30.6853C13.7537 29.8153 12.0075 28.5541 10.2539 26.9953C6.84295 23.9633 3.00007 19.4499 3 14.2497C3 11.6999 3.74855 9.60829 5.03906 8.07395C6.32549 6.54469 8.07553 5.65926 9.91113 5.39475C12.8063 4.97759 15.94 6.09757 18 8.6467C20.06 6.09757 23.1937 4.97759 26.0889 5.39475C27.9245 5.65926 29.6745 6.54469 30.9609 8.07395C32.2514 9.60829 33 11.6999 33 14.2497Z" fill="white"/>
</svg>
