<svg width="36" height="37" viewBox="0 0 36 37" fill="none" xmlns="http://www.w3.org/2000/svg">
<path d="M18.728 32.703C18.2751 32.9545 17.7249 32.9545 17.272 32.703L18 31.3919L18.728 32.703ZM30 14.8919C30 12.942 29.4358 11.5643 28.6641 10.6468C27.888 9.72451 26.8253 9.17396 25.6611 9.0062C23.3183 8.66859 20.6071 9.89086 19.3799 12.7708C19.1442 13.324 18.6012 13.6834 18 13.6834C17.3988 13.6834 16.8558 13.324 16.6201 12.7708C15.3929 9.89086 12.6817 8.66859 10.3389 9.0062C9.17465 9.17396 8.11198 9.72451 7.33594 10.6468C6.56417 11.5643 6 12.942 6 14.8919C6.00007 18.6917 8.90713 22.4283 12.2461 25.3963C13.8675 26.8376 15.4963 28.0138 16.7227 28.8314C17.2287 29.1687 17.6654 29.4408 18 29.6458C18.3346 29.4408 18.7713 29.1687 19.2773 28.8314C20.5037 28.0138 22.1325 26.8376 23.7539 25.3963C27.0929 22.4283 29.9999 18.6917 30 14.8919ZM33 14.8919C32.9999 20.0921 29.157 24.6055 25.7461 27.6375C23.9925 29.1963 22.2463 30.4575 20.9414 31.3275C20.2875 31.7634 19.741 32.1039 19.355 32.3368C19.1619 32.4532 19.0089 32.5433 18.9023 32.6048C18.8491 32.6356 18.807 32.6586 18.7778 32.6751C18.7637 32.6832 18.7524 32.6896 18.7441 32.6942C18.7402 32.6964 18.7363 32.6987 18.7339 32.7L18.731 32.7015L18.7295 32.703L18 31.3919L17.2705 32.703L17.269 32.7015L17.2661 32.7C17.2637 32.6987 17.2598 32.6964 17.2559 32.6942C17.2476 32.6896 17.2363 32.6832 17.2222 32.6751C17.193 32.6586 17.1509 32.6356 17.0977 32.6048C16.9911 32.5433 16.8381 32.4532 16.645 32.3368C16.259 32.1039 15.7125 31.7634 15.0586 31.3275C13.7537 30.4575 12.0075 29.1963 10.2539 27.6375C6.84295 24.6055 3.00007 20.0921 3 14.8919C3 12.3421 3.74855 10.2505 5.03906 8.71616C6.32549 7.1869 8.07553 6.30147 9.91113 6.03696C12.8063 5.61981 15.94 6.73979 18 9.28891C20.06 6.73979 23.1937 5.61981 26.0889 6.03696C27.9245 6.30147 29.6745 7.1869 30.9609 8.71616C32.2514 10.2505 33 12.3421 33 14.8919Z" fill="white"/>
</svg>
