<svg width="45" height="44" viewBox="0 0 45 44" fill="none" xmlns="http://www.w3.org/2000/svg">
<rect x="0.5" width="44" height="44" rx="22" fill="#ED1C24"/>
<path d="M22.4785 11.0068C24.7192 11.0026 25.4902 11.0083 26.2305 11.0332L27.0137 11.0645C28.0377 11.1087 28.7776 11.2563 29.415 11.4736L29.6826 11.5703C30.3156 11.8142 30.8643 12.1325 31.4014 12.6162L31.6318 12.834C32.1668 13.3675 32.5215 13.9026 32.791 14.5117L32.9023 14.7773C33.1414 15.3887 33.3148 16.0767 33.3916 17.0234L33.418 17.4453C33.4736 18.6179 33.4875 18.9921 33.4932 21.9785V23.7822C33.4898 25.2029 33.474 25.6342 33.4355 26.5146L33.4102 26.9365C33.3475 27.7473 33.2126 28.3688 33.0264 28.915L32.9297 29.1826C32.6851 29.8156 32.3673 30.3643 31.8838 30.9014L31.666 31.1309C31.1329 31.6664 30.5978 32.0222 29.9883 32.292L29.7227 32.4023C29.1113 32.641 28.4236 32.8145 27.4775 32.8916L27.0557 32.918C25.8826 32.9736 25.5081 32.9875 22.5205 32.9932H20.7168C19.7706 32.991 19.2638 32.9833 18.7705 32.9668L17.9863 32.9355C16.9624 32.8906 16.2222 32.7444 15.585 32.5273L15.3184 32.4297C14.6852 32.1848 14.1358 31.8677 13.5986 31.3838L13.3691 31.166C12.8336 30.6326 12.4774 30.0978 12.208 29.4883L12.0977 29.2227C11.8584 28.6117 11.6863 27.9235 11.6094 26.9775L11.582 26.5557C11.5261 25.3825 11.5125 25.0074 11.5068 22.0215V20.2178C11.5101 18.7971 11.526 18.3663 11.5645 17.4863L11.5898 17.0645C11.6528 16.2531 11.7866 15.6315 11.9727 15.085L12.0703 14.8174C12.3149 14.1846 12.6321 13.6359 13.1162 13.0986L13.334 12.8691C13.867 12.334 14.4023 11.9773 15.0117 11.708L15.2783 11.5977C15.8888 11.3585 16.5766 11.185 17.5225 11.1084L17.9443 11.082C18.8243 11.0398 19.2551 11.0223 20.6758 11.0137L22.4785 11.0068ZM22.4824 12.9775C20.2796 12.9818 19.5336 12.9899 18.8086 13.0166L18.0381 13.0498C17.2336 13.088 16.705 13.1994 16.3271 13.3164L15.9951 13.4326C15.5453 13.6085 15.2083 13.8135 14.873 14.1211L14.7295 14.2588C14.3932 14.597 14.1686 14.9202 13.9844 15.3408L13.9072 15.5273C13.758 15.9157 13.5792 16.4999 13.5332 17.5723L13.502 18.3438C13.4779 19.0687 13.4733 19.8157 13.4775 22.0176L13.4834 23.7881C13.4917 25.1791 13.5089 25.5924 13.5498 26.4619L13.5742 26.8418C13.6246 27.4384 13.7189 27.8579 13.8164 28.1729L13.9326 28.5059C14.1084 28.9552 14.314 29.2918 14.6211 29.627L14.7588 29.7705C15.0969 30.1061 15.4206 30.3313 15.8408 30.5156L16.0273 30.5928C16.3674 30.7236 16.8566 30.8759 17.6924 30.9434L18.0723 30.9668C18.9427 31.0045 19.356 31.0204 20.7471 31.0234L22.5166 31.0225C24.7198 31.0184 25.4665 31.0111 26.1914 30.9844L26.9619 30.9502C27.7658 30.912 28.2951 30.8015 28.6729 30.6846L29.0049 30.5674C29.455 30.3915 29.792 30.1858 30.127 29.8789L30.2705 29.7412C30.6071 29.403 30.8314 29.0793 31.0156 28.6592L31.0928 28.4727C31.2426 28.0836 31.4201 27.5003 31.4668 26.4277L31.498 25.6562C31.5223 24.9315 31.5267 24.1848 31.5225 21.9824L31.5166 20.2119C31.5083 18.8213 31.4916 18.408 31.4502 17.5381L31.4248 17.1582C31.3745 16.5616 31.2811 16.1418 31.1836 15.8271L31.0674 15.4951C30.8916 15.0445 30.6862 14.7081 30.3789 14.373L30.2402 14.2295C29.9023 13.8925 29.5789 13.6685 29.1582 13.4844L28.9717 13.4082C28.6322 13.2767 28.143 13.124 27.3076 13.0566L26.9277 13.0332C26.0575 12.995 25.6441 12.9795 24.2529 12.9766L22.4824 12.9775ZM22.4893 16.3574C25.6054 16.3516 28.1365 18.874 28.1426 21.9893L28.1357 22.2793C27.9904 25.261 25.5293 27.6356 22.5107 27.6416L22.2197 27.6348C19.2389 27.4892 16.8633 25.0296 16.8574 22.0107L16.8643 21.7207C17.0047 18.8356 19.3139 16.5172 22.1982 16.3652L22.4893 16.3574ZM22.4932 18.3281C20.4656 18.3317 18.8236 19.9789 18.8271 22.0068L18.833 22.1953C18.9316 24.0731 20.44 25.5763 22.3174 25.668L22.5068 25.6719C24.5349 25.6678 26.1757 24.0212 26.1719 21.9932L26.167 21.8037C26.0681 19.9261 24.5593 18.4235 22.6816 18.332L22.4932 18.3281ZM28.3574 14.8037C29.083 14.8024 29.6724 15.39 29.6738 16.1152L29.668 16.249C29.6018 16.9116 29.0427 17.4303 28.3623 17.4316L28.2275 17.4248C27.5653 17.3586 27.0473 16.7999 27.0459 16.1201L27.0527 15.9854C27.1145 15.3674 27.6047 14.8747 28.2227 14.8105L28.3574 14.8037Z" fill="white" stroke="white" stroke-width="0.01152"/>
</svg>
