<svg width="143" height="53" viewBox="0 0 143 53" fill="none" xmlns="http://www.w3.org/2000/svg">
<path d="M17.3065 12.052C17.9045 12.19 18.3875 12.489 18.7555 12.949C19.1388 13.409 19.3305 13.9533 19.3305 14.582V15.387C19.3305 16.031 19.2078 16.6367 18.9625 17.204C18.7171 17.7867 18.3798 18.2927 17.9505 18.722C17.5365 19.1513 17.0381 19.4887 16.4555 19.734C15.8881 19.9793 15.2748 20.102 14.6155 20.102H6.152C5.44667 20.102 4.77967 19.964 4.151 19.688C3.52233 19.4273 2.97033 19.0593 2.495 18.584C2.035 18.124 1.667 17.5797 1.391 16.951C1.13033 16.3377 1 15.6707 1 14.95V9.683H3.53V14.582C3.53 14.9347 3.599 15.2643 3.737 15.571C3.875 15.8777 4.059 16.146 4.289 16.376C4.519 16.606 4.78733 16.7823 5.094 16.905C5.40067 17.043 5.73033 17.112 6.083 17.112H14.8915C15.4281 17.112 15.8805 16.928 16.2485 16.56C16.6165 16.192 16.8005 15.7397 16.8005 15.203V14.605L10.3605 13.087V10.396C10.3605 9.78267 10.4601 9.20767 10.6595 8.671C10.8741 8.13433 11.1655 7.659 11.5335 7.245C11.9015 6.81567 12.3385 6.47067 12.8445 6.21C13.3505 5.934 13.9025 5.75767 14.5005 5.681L17.7205 5.267L18.1345 8.027L14.4545 8.51C13.9791 8.57133 13.5805 8.77833 13.2585 9.131C12.9518 9.48367 12.7985 9.89767 12.7985 10.373V11.04L17.3065 12.052Z" fill="white"/>
<path d="M20.4607 21.62L19.6787 19.251L22.9907 18.17C23.5734 17.9707 24.0334 17.6257 24.3707 17.135C24.7234 16.6443 24.8997 16.1 24.8997 15.502V7.544H27.4297V15.249C27.4297 15.847 27.3377 16.422 27.1537 16.974C26.9697 17.5413 26.709 18.055 26.3717 18.515C26.0497 18.975 25.651 19.3737 25.1757 19.711C24.7157 20.0637 24.202 20.3397 23.6347 20.539L20.4607 21.62ZM24.7847 2.783H27.4297V5.428H24.7847V2.783Z" fill="white"/>
<path d="M35.2364 15.433C35.2364 15.6477 35.1291 15.755 34.9144 15.755H34.2474C33.6954 15.755 33.1741 15.6553 32.6834 15.456C32.1927 15.2413 31.7634 14.95 31.3954 14.582C31.0274 14.214 30.7361 13.7847 30.5214 13.294C30.3067 12.8033 30.1994 12.282 30.1994 11.73V0H32.7294V11.661C32.7294 11.9677 32.8367 12.2283 33.0514 12.443C33.2661 12.6577 33.5267 12.765 33.8334 12.765H34.9144C35.0064 12.765 35.0831 12.8033 35.1444 12.88C35.2057 12.9413 35.2364 13.018 35.2364 13.11V15.433Z" fill="white"/>
<path d="M34.9063 15.755C34.6917 15.755 34.5843 15.6477 34.5843 15.433V13.11C34.5843 13.0333 34.615 12.9567 34.6763 12.88C34.7377 12.8033 34.8067 12.765 34.8833 12.765H39.0233C39.6673 12.765 40.3037 12.6653 40.9323 12.466C41.561 12.2513 42.0977 11.9063 42.5423 11.431L43.8763 10.005C43.953 9.92833 44.022 9.85933 44.0833 9.798C44.1447 9.73667 44.183 9.706 44.1983 9.706L39.3683 8.257C39.215 8.211 39.077 8.22633 38.9543 8.303C38.847 8.36433 38.7627 8.464 38.7013 8.602L37.8273 10.902L35.6193 10.304L36.2173 8.188C36.3553 7.71267 36.57 7.30633 36.8613 6.969C37.1527 6.63167 37.49 6.371 37.8733 6.187C38.2567 5.98767 38.663 5.87267 39.0923 5.842C39.5217 5.796 39.9357 5.83433 40.3343 5.957L49.4883 8.694L48.7293 11.063L47.6483 10.741C47.3877 10.6797 47.1653 10.6643 46.9813 10.695C46.8127 10.7257 46.6517 10.787 46.4983 10.879V11.661C46.4983 11.9677 46.6057 12.2283 46.8203 12.443C47.035 12.6577 47.2957 12.765 47.6023 12.765H50.6613C50.876 12.765 50.9833 12.8723 50.9833 13.087V15.433C50.9833 15.6477 50.876 15.755 50.6613 15.755H48.0163C47.0963 15.755 46.3143 15.4943 45.6703 14.973C45.0417 14.4363 44.6047 13.754 44.3593 12.926L43.4393 13.846C42.78 14.5053 42.0133 14.9883 41.1393 15.295C40.2653 15.6017 39.3683 15.755 38.4483 15.755H34.9063ZM41.2313 18.538H43.8763V21.183H41.2313V18.538Z" fill="white"/>
<path d="M50.6514 12.765H54.0554C54.2701 12.765 54.3774 12.8723 54.3774 13.087V15.433C54.3774 15.6477 54.2701 15.755 54.0554 15.755H50.6514C50.4368 15.755 50.3294 15.6477 50.3294 15.433V13.087C50.3294 12.8723 50.4368 12.765 50.6514 12.765Z" fill="white"/>
<path d="M54.0655 12.765H57.4695C57.6842 12.765 57.7915 12.8723 57.7915 13.087V15.433C57.7915 15.6477 57.6842 15.755 57.4695 15.755H54.0655C53.8508 15.755 53.7435 15.6477 53.7435 15.433V13.087C53.7435 12.8723 53.8508 12.765 54.0655 12.765Z" fill="white"/>
<path d="M57.4796 12.765H60.8836C61.0982 12.765 61.2056 12.8723 61.2056 13.087V15.433C61.2056 15.6477 61.0982 15.755 60.8836 15.755H57.4796C57.2649 15.755 57.1576 15.6477 57.1576 15.433V13.087C57.1576 12.8723 57.2649 12.765 57.4796 12.765Z" fill="white"/>
<path d="M60.8936 12.765H64.2976C64.5123 12.765 64.6196 12.8723 64.6196 13.087V15.433C64.6196 15.6477 64.5123 15.755 64.2976 15.755H60.8936C60.679 15.755 60.5716 15.6477 60.5716 15.433V13.087C60.5716 12.8723 60.679 12.765 60.8936 12.765Z" fill="white"/>
<path d="M64.3077 12.765H67.7117C67.9264 12.765 68.0337 12.8723 68.0337 13.087V15.433C68.0337 15.6477 67.9264 15.755 67.7117 15.755H64.3077C64.093 15.755 63.9857 15.6477 63.9857 15.433V13.087C63.9857 12.8723 64.093 12.765 64.3077 12.765Z" fill="white"/>
<path d="M67.7218 12.765H71.1258C71.3404 12.765 71.4478 12.8723 71.4478 13.087V15.433C71.4478 15.6477 71.3404 15.755 71.1258 15.755H67.7218C67.5071 15.755 67.3998 15.6477 67.3998 15.433V13.087C67.3998 12.8723 67.5071 12.765 67.7218 12.765Z" fill="white"/>
<path d="M71.1358 12.765H74.5398C74.7545 12.765 74.8618 12.8723 74.8618 13.087V15.433C74.8618 15.6477 74.7545 15.755 74.5398 15.755H71.1358C70.9212 15.755 70.8138 15.6477 70.8138 15.433V13.087C70.8138 12.8723 70.9212 12.765 71.1358 12.765Z" fill="white"/>
<path d="M74.5499 12.765H77.9539C78.1685 12.765 78.2759 12.8723 78.2759 13.087V15.433C78.2759 15.6477 78.1685 15.755 77.9539 15.755H74.5499C74.3352 15.755 74.2279 15.6477 74.2279 15.433V13.087C74.2279 12.8723 74.3352 12.765 74.5499 12.765Z" fill="white"/>
<path d="M77.9639 12.765H81.3679C81.5826 12.765 81.6899 12.8723 81.6899 13.087V15.433C81.6899 15.6477 81.5826 15.755 81.3679 15.755H77.9639C77.7493 15.755 77.6419 15.6477 77.6419 15.433V13.087C77.6419 12.8723 77.7493 12.765 77.9639 12.765Z" fill="white"/>
<path d="M81.378 12.765H84.782C84.9967 12.765 85.104 12.8723 85.104 13.087V15.433C85.104 15.6477 84.9967 15.755 84.782 15.755H81.378C81.1633 15.755 81.056 15.6477 81.056 15.433V13.087C81.056 12.8723 81.1633 12.765 81.378 12.765Z" fill="white"/>
<path d="M84.7921 12.765H88.1961C88.4107 12.765 88.5181 12.8723 88.5181 13.087V15.433C88.5181 15.6477 88.4107 15.755 88.1961 15.755H84.7921C84.5774 15.755 84.4701 15.6477 84.4701 15.433V13.087C84.4701 12.8723 84.5774 12.765 84.7921 12.765Z" fill="white"/>
<path d="M88.2061 12.765H91.6101C91.8248 12.765 91.9321 12.8723 91.9321 13.087V15.433C91.9321 15.6477 91.8248 15.755 91.6101 15.755H88.2061C87.9915 15.755 87.8841 15.6477 87.8841 15.433V13.087C87.8841 12.8723 87.9915 12.765 88.2061 12.765Z" fill="white"/>
<path d="M91.6202 12.765H95.0242C95.2389 12.765 95.3462 12.8723 95.3462 13.087V15.433C95.3462 15.6477 95.2389 15.755 95.0242 15.755H91.6202C91.4055 15.755 91.2982 15.6477 91.2982 15.433V13.087C91.2982 12.8723 91.4055 12.765 91.6202 12.765Z" fill="white"/>
<path d="M95.0343 12.765H98.4383C98.6529 12.765 98.7603 12.8723 98.7603 13.087V15.433C98.7603 15.6477 98.6529 15.755 98.4383 15.755H95.0343C94.8196 15.755 94.7123 15.6477 94.7123 15.433V13.087C94.7123 12.8723 94.8196 12.765 95.0343 12.765Z" fill="white"/>
<path d="M103.669 12.765H106.912V10.235C106.912 9.98967 106.828 9.78267 106.659 9.614C106.491 9.44533 106.284 9.361 106.038 9.361H104.175C103.961 9.361 103.777 9.43 103.623 9.568C103.47 9.69067 103.37 9.85933 103.324 10.074L102.956 11.914C102.91 12.1287 102.956 12.328 103.094 12.512C103.248 12.6807 103.439 12.765 103.669 12.765ZM100.403 11.753L100.863 9.384C100.94 8.97 101.086 8.58667 101.3 8.234C101.53 7.866 101.799 7.55933 102.105 7.314C102.412 7.05333 102.757 6.854 103.14 6.716C103.539 6.56267 103.953 6.486 104.382 6.486H105.67C106.192 6.486 106.682 6.58567 107.142 6.785C107.602 6.98433 108.001 7.25267 108.338 7.59C108.676 7.92733 108.944 8.326 109.143 8.786C109.343 9.246 109.442 9.73667 109.442 10.258V12.949C109.442 13.3323 109.366 13.7003 109.212 14.053C109.074 14.3903 108.875 14.6893 108.614 14.95C108.369 15.1953 108.078 15.3947 107.74 15.548C107.403 15.686 107.043 15.755 106.659 15.755H103.991C103.531 15.755 103.094 15.663 102.68 15.479C102.266 15.2797 101.891 14.9347 101.553 14.444C101.201 14.9347 100.81 15.2797 100.38 15.479C99.951 15.663 99.491 15.755 99.0003 15.755H98.4483C98.2337 15.755 98.1263 15.6477 98.1263 15.433V13.087C98.1263 12.8723 98.2337 12.765 98.4483 12.765H99.1843C99.491 12.765 99.7517 12.673 99.9663 12.489C100.196 12.305 100.342 12.0597 100.403 11.753Z" fill="white"/>
<path d="M112.753 21.62L111.971 19.251L115.283 18.17C115.865 17.9707 116.325 17.6257 116.663 17.135C117.015 16.6443 117.192 16.1 117.192 15.502V7.544H119.722V15.249C119.722 15.847 119.63 16.422 119.446 16.974C119.262 17.5413 119.001 18.055 118.664 18.515C118.342 18.975 117.943 19.3737 117.468 19.711C117.008 20.0637 116.494 20.3397 115.927 20.539L112.753 21.62Z" fill="white"/>
<path d="M125.849 15.755C125.282 15.755 124.761 15.64 124.285 15.41C123.81 15.1647 123.411 14.8427 123.089 14.444C122.767 14.0453 122.53 13.593 122.376 13.087C122.238 12.5657 122.223 12.029 122.33 11.477L122.721 9.384C122.798 8.97 122.944 8.58667 123.158 8.234C123.388 7.866 123.657 7.55167 123.963 7.291C124.27 7.03033 124.615 6.831 124.998 6.693C125.397 6.53967 125.811 6.463 126.24 6.463H127.528C128.05 6.463 128.54 6.56267 129 6.762C129.46 6.96133 129.859 7.23733 130.196 7.59C130.534 7.92733 130.802 8.326 131.001 8.786C131.201 9.246 131.3 9.73667 131.3 10.258V12.765H132.91C133.125 12.765 133.232 12.8723 133.232 13.087V15.433C133.232 15.6477 133.125 15.755 132.91 15.755H131.277C131.277 15.7703 131.277 15.8087 131.277 15.87C131.277 15.9313 131.27 16.008 131.254 16.1C131.162 17.112 130.771 18.0243 130.081 18.837C129.407 19.6497 128.54 20.24 127.482 20.608L124.331 21.689L123.549 19.274L126.792 18.193C127.375 17.9937 127.843 17.6717 128.195 17.227C128.563 16.7823 128.747 16.2533 128.747 15.64V15.479C128.579 15.5557 128.372 15.6247 128.126 15.686C127.881 15.732 127.636 15.755 127.39 15.755H125.849ZM125.527 12.765H128.77V10.235C128.77 9.98967 128.686 9.78267 128.517 9.614C128.349 9.43 128.142 9.338 127.896 9.338H126.033C125.819 9.338 125.635 9.407 125.481 9.545C125.328 9.683 125.228 9.85933 125.182 10.074L124.814 11.914C124.768 12.1287 124.814 12.328 124.952 12.512C125.106 12.6807 125.297 12.765 125.527 12.765Z" fill="white"/>
<path d="M138.509 12.765C138.815 12.765 139.076 12.6577 139.291 12.443C139.505 12.213 139.613 11.9447 139.613 11.638V6.877H142.143V11.638C142.143 12.2053 142.035 12.742 141.821 13.248C141.606 13.7387 141.307 14.1757 140.924 14.559C140.556 14.927 140.119 15.2183 139.613 15.433C139.122 15.6477 138.593 15.755 138.026 15.755H132.903C132.811 15.755 132.735 15.7243 132.673 15.663C132.612 15.5863 132.581 15.5097 132.581 15.433V13.11C132.581 13.018 132.612 12.9413 132.673 12.88C132.735 12.8033 132.811 12.765 132.903 12.765H138.509ZM135.657 4.784H138.302V2.139H135.657V4.784ZM139.498 4.784H142.143V2.139H139.498V4.784Z" fill="white"/>
<path d="M1.60475 52.62L0.822754 50.251L4.13475 49.17C4.71742 48.9707 5.17742 48.6257 5.51475 48.135C5.86742 47.6443 6.04375 47.1 6.04375 46.502V38.544H8.57375V46.249C8.57375 46.847 8.48175 47.422 8.29775 47.974C8.11375 48.5413 7.85309 49.055 7.51575 49.515C7.19375 49.975 6.79509 50.3737 6.31975 50.711C5.85975 51.0637 5.34609 51.3397 4.77875 51.539L1.60475 52.62ZM5.92875 33.783H8.57375V36.428H5.92875V33.783Z" fill="white"/>
<path d="M16.3805 46.433C16.3805 46.6477 16.2731 46.755 16.0585 46.755H15.3915C14.8395 46.755 14.3181 46.6553 13.8275 46.456C13.3368 46.2413 12.9075 45.95 12.5395 45.582C12.1715 45.214 11.8801 44.7847 11.6655 44.294C11.4508 43.8033 11.3435 43.282 11.3435 42.73V31H13.8735V42.661C13.8735 42.9677 13.9808 43.2283 14.1955 43.443C14.4101 43.6577 14.6708 43.765 14.9775 43.765H16.0585C16.1505 43.765 16.2271 43.8033 16.2885 43.88C16.3498 43.9413 16.3805 44.018 16.3805 44.11V46.433Z" fill="white"/>
<path d="M22.2834 46.755C21.7314 46.755 21.21 46.6477 20.7194 46.433C20.244 46.203 19.83 45.858 19.4774 45.398C19.1094 45.858 18.68 46.203 18.1894 46.433C17.714 46.6477 17.2004 46.755 16.6484 46.755H16.0504C15.8357 46.755 15.7284 46.6477 15.7284 46.433V44.11C15.7284 44.018 15.7667 43.9413 15.8434 43.88C15.9047 43.8033 15.9737 43.765 16.0504 43.765H17.1084C17.415 43.765 17.6757 43.65 17.8904 43.42C18.105 43.19 18.2124 42.9217 18.2124 42.615V38.521H20.7424V42.638C20.7424 42.9447 20.8497 43.213 21.0644 43.443C21.279 43.6577 21.5397 43.765 21.8464 43.765H22.5134C22.82 43.765 23.0884 43.673 23.3184 43.489C23.5484 43.305 23.694 43.0597 23.7554 42.753L24.6064 38.59L27.0904 39.05L26.4004 42.5C26.3237 42.822 26.3927 43.1133 26.6074 43.374C26.8374 43.6347 27.1134 43.765 27.4354 43.765H29.1374V37.9H31.6674V43.949C31.6674 44.3323 31.5907 44.7003 31.4374 45.053C31.2994 45.3903 31.1 45.6893 30.8394 45.95C30.594 46.1953 30.295 46.3947 29.9424 46.548C29.605 46.686 29.2447 46.755 28.8614 46.755H27.4354C26.9447 46.755 26.4847 46.6477 26.0554 46.433C25.626 46.2183 25.258 45.8657 24.9514 45.375C24.5987 45.8657 24.1924 46.2183 23.7324 46.433C23.2724 46.6477 22.7894 46.755 22.2834 46.755Z" fill="white"/>
<path d="M36.4772 45.651V38.912H39.0072V45.283C39.0072 45.6357 39.0686 45.9653 39.1912 46.272C39.3292 46.5787 39.5132 46.847 39.7432 47.077C39.9732 47.307 40.2416 47.4833 40.5482 47.606C40.8549 47.744 41.1846 47.813 41.5372 47.813H45.6542C46.2369 47.813 46.7276 47.6137 47.1262 47.215C47.5249 46.8163 47.7242 46.3257 47.7242 45.743V38.544H50.2542V42.661C50.2542 42.9677 50.3616 43.2283 50.5762 43.443C50.7909 43.6577 51.0516 43.765 51.3582 43.765H52.7842C52.8762 43.765 52.9529 43.8033 53.0142 43.88C53.0756 43.9413 53.1062 44.018 53.1062 44.11V46.433C53.1062 46.5097 53.0756 46.5863 53.0142 46.663C52.9529 46.7243 52.8762 46.755 52.7842 46.755H51.7492C51.2432 46.755 50.8829 46.663 50.6682 46.479C50.4536 46.295 50.3079 46.1493 50.2312 46.042V46.617C50.2312 47.1997 50.1009 47.744 49.8402 48.25C49.5949 48.756 49.2576 49.2007 48.8282 49.584C48.4142 49.9673 47.9312 50.2663 47.3792 50.481C46.8272 50.6957 46.2446 50.803 45.6312 50.803H41.6292C40.9239 50.803 40.2569 50.665 39.6282 50.389C38.9996 50.1283 38.4476 49.7603 37.9722 49.285C37.5122 48.825 37.1442 48.2807 36.8682 47.652C36.6076 47.0233 36.4772 46.3563 36.4772 45.651ZM42.0432 35.899H44.6882V38.544H42.0432V35.899Z" fill="white"/>
<path d="M56.684 43.765C56.9907 43.765 57.2513 43.6577 57.466 43.443C57.6807 43.213 57.788 42.9447 57.788 42.638V37.877H60.318V42.638C60.318 43.2053 60.2107 43.742 59.996 44.248C59.7813 44.7387 59.4823 45.1757 59.099 45.559C58.731 45.927 58.294 46.2183 57.788 46.433C57.2973 46.6477 56.7683 46.755 56.201 46.755H52.774C52.682 46.755 52.6053 46.7243 52.544 46.663C52.4827 46.5863 52.452 46.5097 52.452 46.433V44.11C52.452 44.018 52.4827 43.9413 52.544 43.88C52.6053 43.8033 52.682 43.765 52.774 43.765H56.684ZM53.832 35.784H56.477V33.139H53.832V35.784ZM57.673 35.784H60.318V33.139H57.673V35.784Z" fill="white"/>
<path d="M69.8064 46.755C69.1624 46.755 68.5567 46.6323 67.9894 46.387C67.4221 46.1417 66.9237 45.812 66.4944 45.398C66.0804 44.9687 65.7507 44.4703 65.5054 43.903C65.2601 43.3357 65.1374 42.73 65.1374 42.086V37.854H67.6674V41.856C67.6674 42.3773 67.8514 42.8297 68.2194 43.213C68.5874 43.581 69.0397 43.765 69.5764 43.765H85.0554C85.3161 43.765 85.5231 43.6807 85.6764 43.512C85.8451 43.328 85.9294 43.1133 85.9294 42.868V41.235C85.9294 40.959 85.8297 40.7213 85.6304 40.522C85.4464 40.3227 85.2164 40.223 84.9404 40.223H73.6014L71.7614 38.498L78.5234 30.586L80.3404 32.265L75.9244 37.463H84.6874C85.2087 37.463 85.6994 37.5627 86.1594 37.762C86.6194 37.9613 87.0181 38.2373 87.3554 38.59C87.6927 38.9273 87.9611 39.326 88.1604 39.786C88.3597 40.2307 88.4594 40.7137 88.4594 41.235V42.753C88.4901 43.0443 88.6051 43.2897 88.8044 43.489C89.0191 43.673 89.2721 43.765 89.5634 43.765H91.0124C91.1044 43.765 91.1811 43.8033 91.2424 43.88C91.3037 43.9413 91.3344 44.018 91.3344 44.11V46.41C91.3344 46.502 91.3037 46.5863 91.2424 46.663C91.1811 46.7243 91.1044 46.755 91.0124 46.755H90.0004C89.4637 46.755 88.9654 46.663 88.5054 46.479C88.0454 46.2797 87.6391 46.019 87.2864 45.697C86.9337 46.019 86.5351 46.2797 86.0904 46.479C85.6457 46.663 85.1781 46.755 84.6874 46.755H69.8064Z" fill="white"/>
<path d="M92.0835 52.16H94.7055V49.515H92.0835V52.16ZM95.9015 52.16H98.5465V49.515H95.9015V52.16ZM99.9495 46.433C99.9495 46.5097 99.9189 46.5863 99.8575 46.663C99.7962 46.7243 99.7195 46.755 99.6275 46.755H97.8795C97.3888 46.755 96.8982 46.6247 96.4075 46.364C95.9168 46.088 95.5872 45.766 95.4185 45.398C95.3112 45.582 95.1579 45.7583 94.9585 45.927C94.7592 46.0803 94.5368 46.226 94.2915 46.364C94.0615 46.4867 93.8085 46.5863 93.5325 46.663C93.2719 46.7243 93.0112 46.755 92.7505 46.755H91.0025C90.7878 46.755 90.6805 46.6477 90.6805 46.433V44.11C90.6805 44.018 90.7112 43.9413 90.7725 43.88C90.8339 43.8033 90.9105 43.765 91.0025 43.765H92.9805C93.2872 43.765 93.5555 43.673 93.7855 43.489C94.0155 43.305 94.1612 43.0597 94.2225 42.753L95.0735 38.613L97.5575 39.05L96.8675 42.523C96.7909 42.845 96.8598 43.1363 97.0745 43.397C97.2892 43.6423 97.5652 43.765 97.9025 43.765H99.6275C99.7195 43.765 99.7962 43.8033 99.8575 43.88C99.9189 43.9413 99.9495 44.018 99.9495 44.11V46.433Z" fill="white"/>
<path d="M103.078 36.497H105.723V33.852H103.078V36.497ZM108.575 46.433C108.575 46.5097 108.544 46.5863 108.483 46.663C108.421 46.7243 108.345 46.755 108.253 46.755H106.505C106.014 46.755 105.523 46.6247 105.033 46.364C104.542 46.088 104.212 45.766 104.044 45.398C103.936 45.582 103.783 45.7583 103.584 45.927C103.384 46.0803 103.162 46.226 102.917 46.364C102.687 46.4867 102.434 46.5863 102.158 46.663C101.897 46.7243 101.636 46.755 101.376 46.755H99.6275C99.4128 46.755 99.3055 46.6477 99.3055 46.433V44.11C99.3055 44.018 99.3362 43.9413 99.3975 43.88C99.4589 43.8033 99.5355 43.765 99.6275 43.765H101.606C101.912 43.765 102.181 43.673 102.411 43.489C102.641 43.305 102.786 43.0597 102.848 42.753L103.699 38.613L106.183 39.05L105.493 42.523C105.416 42.845 105.485 43.1363 105.7 43.397C105.914 43.6423 106.19 43.765 106.528 43.765H108.253C108.345 43.765 108.421 43.8033 108.483 43.88C108.544 43.9413 108.575 44.018 108.575 44.11V46.433Z" fill="white"/>
<path d="M109.334 52.16H111.956V49.515H109.334V52.16ZM113.152 52.16H115.797V49.515H113.152V52.16ZM117.2 46.433C117.2 46.5097 117.169 46.5863 117.108 46.663C117.046 46.7243 116.97 46.755 116.878 46.755H115.13C114.639 46.755 114.148 46.6247 113.658 46.364C113.167 46.088 112.837 45.766 112.669 45.398C112.561 45.582 112.408 45.7583 112.209 45.927C112.009 46.0803 111.787 46.226 111.542 46.364C111.312 46.4867 111.059 46.5863 110.783 46.663C110.522 46.7243 110.261 46.755 110.001 46.755H108.253C108.038 46.755 107.931 46.6477 107.931 46.433V44.11C107.931 44.018 107.961 43.9413 108.023 43.88C108.084 43.8033 108.161 43.765 108.253 43.765H110.231C110.537 43.765 110.806 43.673 111.036 43.489C111.266 43.305 111.411 43.0597 111.473 42.753L112.324 38.613L114.808 39.05L114.118 42.523C114.041 42.845 114.11 43.1363 114.325 43.397C114.539 43.6423 114.815 43.765 115.153 43.765H116.878C116.97 43.765 117.046 43.8033 117.108 43.88C117.169 43.9413 117.2 44.018 117.2 44.11V46.433Z" fill="white"/>
<path d="M124.537 43.765C124.613 43.765 124.682 43.7957 124.744 43.857C124.82 43.9183 124.859 43.995 124.859 44.087V46.433C124.859 46.525 124.82 46.6017 124.744 46.663C124.682 46.7243 124.613 46.755 124.537 46.755H123.502C122.965 46.755 122.451 46.6553 121.961 46.456C121.485 46.2567 121.071 45.9807 120.719 45.628C120.351 45.9807 119.921 46.2567 119.431 46.456C118.94 46.6553 118.426 46.755 117.89 46.755H116.878C116.663 46.755 116.556 46.6477 116.556 46.433V44.087C116.556 43.8723 116.663 43.765 116.878 43.765H118.35C118.656 43.765 118.917 43.6577 119.132 43.443C119.346 43.2283 119.454 42.9677 119.454 42.661V31H121.984V42.776C122.014 43.052 122.129 43.2897 122.329 43.489C122.543 43.673 122.796 43.765 123.088 43.765H124.537Z" fill="white"/>
<path d="M127.297 40.246L125.48 38.498L132.242 30.586L134.059 32.288L129.643 37.486H138.406C138.927 37.486 139.41 37.5857 139.855 37.785C140.315 37.9843 140.713 38.2527 141.051 38.59C141.403 38.9273 141.679 39.326 141.879 39.786C142.078 40.246 142.178 40.7367 142.178 41.258V42.96C142.178 43.512 142.07 44.018 141.856 44.478C141.656 44.938 141.373 45.3367 141.005 45.674C140.652 46.0113 140.238 46.2797 139.763 46.479C139.303 46.663 138.82 46.755 138.314 46.755H124.537C124.322 46.7243 124.215 46.617 124.215 46.433V44.087C124.215 43.8723 124.322 43.765 124.537 43.765H138.751C138.981 43.765 139.188 43.6883 139.372 43.535C139.556 43.3663 139.648 43.144 139.648 42.868V41.235C139.648 40.959 139.548 40.729 139.349 40.545C139.149 40.3457 138.912 40.246 138.636 40.246H127.297Z" fill="white"/>
</svg>
