<svg width="20" height="20" viewBox="0 0 20 20" fill="none" xmlns="http://www.w3.org/2000/svg">
<path d="M0 2.89453C0 1.29574 1.29605 0.000111173 2.89453 0H5.64551C6.87216 0 7.97503 0.746862 8.43066 1.88574L9.48633 4.52148L9.55566 4.71484C9.87028 5.68971 9.66574 6.76356 9.00488 7.55664H9.00391L8.43652 8.23633L8.4375 8.2373C8.10715 8.63382 8.13277 9.21759 8.49902 9.58398H8.5L10.416 11.502H10.415C10.7804 11.8673 11.3651 11.8935 11.7627 11.5625L12.4434 10.9951L12.6064 10.8691C13.4358 10.269 14.5196 10.1311 15.4785 10.5146L18.1143 11.5684H18.1152L18.3232 11.6611C19.3439 12.1621 19.9998 13.2035 20 14.3535V17.1055L19.9854 17.4014C19.8371 18.8608 18.6044 20 17.1055 20C7.65849 20 0 12.3415 0 2.89453ZM2 2.89453C2 11.2369 8.76306 18 17.1055 18C17.5687 18 17.9495 17.6478 17.9951 17.1963L18 17.1055V14.3535C17.9998 13.9958 17.8097 13.6698 17.5078 13.4922L17.3721 13.4258L14.7354 12.3711C14.437 12.2518 14.1027 12.2841 13.835 12.4512L13.7246 12.5312L13.0439 13.0986C11.9266 14.0298 10.3151 14.0189 9.21387 13.1094L9.00098 12.916L7.08496 10.998C5.98863 9.90158 5.90648 8.14874 6.90039 6.95605H6.90137L7.46875 6.27539C7.67463 6.02786 7.74719 5.69954 7.6709 5.39355L7.62891 5.26465L6.57422 2.62891C6.42236 2.24925 6.05441 2 5.64551 2H2.89453C2.40033 2.00011 2 2.40059 2 2.89453Z" fill="#2E2E2E"/>
</svg>
