<svg width="60" height="60" viewBox="0 0 60 60" fill="none" xmlns="http://www.w3.org/2000/svg">
<rect width="60" height="60" rx="30" fill="#ED1C24"/>
<path d="M21.6665 37.1115V22.8893C21.6665 21.7166 21.6665 21.1295 21.9133 20.7825C22.1287 20.4797 22.4607 20.2809 22.8293 20.2333C23.2514 20.1789 23.7692 20.455 24.8032 21.0065L38.1366 28.1176L38.1414 28.1198C39.2841 28.7292 39.8558 29.0341 40.0433 29.4404C40.2069 29.7949 40.2069 30.2041 40.0433 30.5586C39.8555 30.9655 39.2825 31.2716 38.1366 31.8828L24.8032 38.9939C23.7684 39.5458 23.2516 39.8209 22.8293 39.7664C22.4607 39.7189 22.1287 39.5201 21.9133 39.2172C21.6665 38.8702 21.6665 38.2843 21.6665 37.1115Z" fill="white" stroke="white" stroke-width="2" stroke-linecap="round" stroke-linejoin="round"/>
</svg>
