<svg width="20" height="20" viewBox="0 0 20 20" fill="none" xmlns="http://www.w3.org/2000/svg">
<path d="M18 4.19727C18 3.62182 17.9997 3.24974 17.9766 2.9668C17.9599 2.76296 17.9343 2.65546 17.9121 2.59375L17.8916 2.5459C17.8201 2.40547 17.7155 2.284 17.5879 2.19141L17.4531 2.10938C17.4036 2.08414 17.3032 2.04561 17.0322 2.02344C16.8907 2.01187 16.7267 2.00602 16.5264 2.00293L15.7998 2H4.2002C3.62366 2 3.25124 2.00127 2.96778 2.02442C2.76443 2.04103 2.65672 2.06568 2.59473 2.08789L2.5459 2.10938C2.40473 2.18133 2.28365 2.28519 2.19141 2.41211L2.10938 2.5459C2.08422 2.59528 2.04662 2.69598 2.02442 2.96778C2.00127 3.25124 2 3.62366 2 4.2002V15.7998L2.00293 16.5264C2.00602 16.7268 2.01285 16.8906 2.02442 17.0322C2.04661 17.3037 2.08417 17.4046 2.10938 17.4541L2.19141 17.5889C2.28379 17.7159 2.40531 17.82 2.5459 17.8916L2.59375 17.9121C2.65546 17.9343 2.76296 17.9599 2.9668 17.9766C3.24974 17.9997 3.62182 18 4.19727 18H15.8027C16.3779 18 16.7496 17.9996 17.0322 17.9766C17.3025 17.9545 17.4037 17.9167 17.4531 17.8916L17.5879 17.8086C17.7151 17.7161 17.8199 17.5948 17.8916 17.4541L17.9121 17.4053C17.9343 17.3435 17.96 17.2362 17.9766 17.0332C17.9997 16.7505 18 16.3791 18 15.8037V4.19727ZM9 12V11C9 10.4477 9.44772 10 10 10C10.3688 10 10.7305 9.89778 11.0449 9.70508C11.3592 9.51249 11.6137 9.23685 11.7813 8.90821L11.8398 8.78321C11.9658 8.48725 12.0185 8.16461 11.9932 7.84278C11.9642 7.47474 11.8348 7.12229 11.6182 6.82422C11.4012 6.52568 11.1053 6.29336 10.7647 6.15235C10.4666 6.02901 10.1442 5.9795 9.82422 6.00782L9.68653 6.02442C9.32217 6.0823 8.98038 6.24005 8.7002 6.4795C8.4198 6.71915 8.2115 7.03132 8.09766 7.38184C7.92718 7.90715 7.36321 8.1949 6.83789 8.02442C6.3126 7.85393 6.02484 7.28996 6.19532 6.76465C6.42311 6.06289 6.84072 5.43813 7.40137 4.95899C7.9623 4.47971 8.64571 4.16536 9.37403 4.04981L9.64747 4.01563C10.2877 3.9589 10.9338 4.05679 11.5303 4.30372C12.212 4.58595 12.8018 5.05193 13.2354 5.64844C13.6693 6.2455 13.9294 6.95045 13.9873 7.68555C14.038 8.32907 13.9322 8.97399 13.6807 9.56543L13.5635 9.81543C13.2287 10.4727 12.719 11.0246 12.0898 11.4102C11.7501 11.6184 11.3822 11.7714 11 11.8701V12C11 12.5523 10.5523 13 10 13C9.44772 13 9 12.5523 9 12ZM11.0498 15.0996C11.0498 15.6511 10.6033 16.0985 10.0518 16.0996L9.95215 16.1006C9.6866 16.1011 9.4321 15.9952 9.24415 15.8076C9.05628 15.6201 8.9503 15.366 8.9502 15.1006V15C8.9502 14.4477 9.39791 14 9.9502 14H10.0498C10.6021 14 11.0498 14.4477 11.0498 15V15.0996ZM20 15.8037C20 16.3461 20.0011 16.8132 19.9697 17.1963C19.9415 17.5418 19.8834 17.8859 19.7402 18.2197L19.6729 18.3623C19.4209 18.8566 19.0372 19.2696 18.5674 19.5576L18.3613 19.6729C17.9833 19.8655 17.5902 19.9374 17.1953 19.9697C16.8123 20.001 16.345 20 15.8027 20H4.19727C3.6548 20 3.187 20.0011 2.80372 19.9697C2.45828 19.9415 2.11417 19.8834 1.78028 19.7402L1.6377 19.6729C1.14336 19.4209 0.730306 19.038 0.442387 18.5684L0.327153 18.3623C0.134411 17.984 0.062592 17.5906 0.0302778 17.1953C0.0146034 17.0035 0.00763475 16.7905 0.00391063 16.5576L4.38324e-06 15.7998V4.2002C4.38324e-06 3.65664 -0.00106671 3.18845 0.0302778 2.80469C0.062581 2.40941 0.134373 2.01605 0.327153 1.6377L0.442387 1.43165C0.730572 0.961585 1.14368 0.578905 1.6377 0.327153L1.78028 0.25977C2.1144 0.11656 2.45886 0.0585406 2.80469 0.0302778C3.18845 -0.00106671 3.65664 4.38328e-06 4.2002 4.38328e-06H15.7998L16.5576 0.00391063C16.7904 0.0076354 17.0036 0.0146035 17.1953 0.0302778C17.5905 0.0626098 17.9832 0.134481 18.3613 0.327153L18.5674 0.442387C19.0369 0.730094 19.4207 1.14283 19.6729 1.6377L19.7402 1.78028C19.8834 2.11417 19.9415 2.45828 19.9697 2.80372C20.0011 3.187 20 3.6548 20 4.19727V15.8037Z" fill="#2E2E2E"/>
</svg>
