<svg width="18" height="19" viewBox="0 0 18 19" fill="none" xmlns="http://www.w3.org/2000/svg">
<path d="M9.36401 16.8302C9.13755 16.956 8.86245 16.956 8.63599 16.8302L9 16.1747L9.36401 16.8302ZM15 7.92467C15 6.9497 14.7179 6.26084 14.332 5.80211C13.944 5.34096 13.4127 5.06568 12.8306 4.9818C11.6591 4.813 10.3035 5.42413 9.68994 6.86412C9.57212 7.14068 9.30061 7.32042 9 7.32042C8.69939 7.32042 8.42788 7.14068 8.31006 6.86412C7.69647 5.42413 6.34087 4.813 5.16943 4.9818C4.58733 5.06568 4.05599 5.34096 3.66797 5.80211C3.28209 6.26084 3 6.9497 3 7.92467C3.00004 9.82456 4.45356 11.6928 6.12305 13.1769C6.93374 13.8975 7.74817 14.4856 8.36133 14.8944C8.61433 15.0631 8.83268 15.1991 9 15.3016C9.16732 15.1991 9.38567 15.0631 9.63867 14.8944C10.2518 14.4856 11.0663 13.8975 11.877 13.1769C13.5464 11.6928 15 9.82456 15 7.92467ZM16.5 7.92467C16.5 10.5247 14.5785 12.7815 12.873 14.2975C11.9963 15.0769 11.1232 15.7075 10.4707 16.1424C10.1438 16.3604 9.87049 16.5307 9.67749 16.6471C9.58096 16.7053 9.50445 16.7503 9.45117 16.7811C9.42456 16.7965 9.40351 16.808 9.38892 16.8163C9.38183 16.8203 9.37618 16.8235 9.37207 16.8258C9.37012 16.8269 9.36817 16.828 9.36694 16.8287L9.36548 16.8295L9.36475 16.8302L9 16.1747L8.63525 16.8302L8.63452 16.8295L8.63306 16.8287C8.63183 16.828 8.62988 16.8269 8.62793 16.8258C8.62382 16.8235 8.61817 16.8203 8.61108 16.8163C8.59649 16.808 8.57544 16.7965 8.54883 16.7811C8.49555 16.7503 8.41904 16.7053 8.32251 16.6471C8.12951 16.5307 7.85624 16.3604 7.5293 16.1424C6.87684 15.7075 6.00374 15.0769 5.12695 14.2975C3.42148 12.7815 1.50003 10.5247 1.5 7.92467C1.5 6.64975 1.87428 5.60395 2.51953 4.83678C3.16274 4.07215 4.03777 3.62943 4.95557 3.49718C6.40317 3.2886 7.96999 3.84859 9 5.12316C10.03 3.84859 11.5968 3.2886 13.0444 3.49718C13.9622 3.62943 14.8373 4.07215 15.4805 4.83678C16.1257 5.60395 16.5 6.64975 16.5 7.92467Z" fill="#ED1C24"/>
</svg>
