<svg width="20" height="20" viewBox="0 0 20 20" fill="none" xmlns="http://www.w3.org/2000/svg">
<path d="M13.3334 8.33317C13.3334 5.57175 11.0948 3.33317 8.33342 3.33317C5.57199 3.33317 3.33341 5.57175 3.33341 8.33317C3.33341 11.0946 5.57199 13.3332 8.33342 13.3332C11.0948 13.3332 13.3334 11.0946 13.3334 8.33317ZM15.0001 8.33317C15.0001 9.87367 14.4754 11.2904 13.5979 12.4193L18.0893 16.9106L18.1462 16.9741C18.4132 17.3014 18.3944 17.7839 18.0893 18.089C17.7842 18.3941 17.3017 18.413 16.9744 18.146L16.9109 18.089L12.4195 13.5977C11.2906 14.4751 9.87391 14.9998 8.33342 14.9998C4.65152 14.9998 1.66675 12.0151 1.66675 8.33317C1.66675 4.65127 4.65152 1.6665 8.33342 1.6665C12.0153 1.6665 15.0001 4.65127 15.0001 8.33317Z" fill="#ED1C24"/>
</svg>
