<svg width="20" height="22" viewBox="0 0 20 22" fill="none" xmlns="http://www.w3.org/2000/svg">
<path d="M18.4452 14.1679C18.9047 13.8616 19.5256 13.9858 19.8319 14.4453C20.1383 14.9048 20.0141 15.5256 19.5546 15.832L10.5546 21.832C10.2605 22.028 9.88857 22.0524 9.57509 21.9052L9.44521 21.832L0.445211 15.832L0.36318 15.7715C-0.0282602 15.4492 -0.119419 14.8762 0.167867 14.4453C0.455052 14.0145 1.01874 13.8782 1.4667 14.1152L1.55459 14.1679L9.9999 19.7978L18.4452 14.1679ZM18.4452 10.1679C18.9047 9.86158 19.5256 9.98575 19.8319 10.4453C20.1383 10.9048 20.0141 11.5256 19.5546 11.832L10.5546 17.832C10.2605 18.028 9.88857 18.0524 9.57509 17.9052L9.44521 17.832L0.445211 11.832L0.36318 11.7715C-0.0282602 11.4492 -0.119419 10.8762 0.167867 10.4453C0.455052 10.0145 1.01874 9.87817 1.4667 10.1152L1.55459 10.1679L9.9999 15.7978L18.4452 10.1679ZM9.57509 0.0946943C9.88857 -0.0524994 10.2605 -0.0280999 10.5546 0.167936L19.5546 6.16794C19.8328 6.3534 19.9999 6.66561 19.9999 6.99997C19.9999 7.33432 19.8328 7.64653 19.5546 7.832L10.5546 13.832C10.2605 14.028 9.88857 14.0524 9.57509 13.9052L9.44521 13.832L0.445211 7.832C0.167012 7.64653 -0.000101409 7.33432 -0.000101409 6.99997C-0.000101409 6.66561 0.167012 6.3534 0.445211 6.16794L9.44521 0.167936L9.57509 0.0946943ZM2.80263 6.99997L9.9999 11.7978L17.1972 6.99997L9.9999 2.20114L2.80263 6.99997Z" fill="#2E2E2E"/>
</svg>
