<svg width="45" height="44" viewBox="0 0 45 44" fill="none" xmlns="http://www.w3.org/2000/svg">
<rect x="0.5" width="44" height="44" rx="22" fill="#ED1C24"/>
<path d="M22.6206 11.25L23.2056 11.2666C25.8936 11.3987 28.0136 12.3193 29.5454 13.9932L29.8647 14.3633C30.637 15.3134 31.2162 16.4525 31.604 17.7725L30.2368 18.1367C29.9492 17.1789 29.5494 16.3282 29.0347 15.6104L28.7886 15.2871C27.4829 13.6808 25.5638 12.8225 23.1147 12.7051L22.6177 12.6914H22.6147C20.1133 12.71 18.1484 13.4657 16.8052 14.9678L16.5444 15.2773C15.3725 16.7672 14.7468 18.8574 14.6538 21.4688L14.6421 21.998V22.002C14.6641 24.6826 15.2186 26.8466 16.3179 28.416L16.5444 28.7217C17.8044 30.3234 19.692 31.1781 22.1216 31.2949L22.6147 31.3086H22.6177C24.8696 31.2921 26.4429 30.7864 27.7476 29.6074L28.0054 29.3623C29.4709 27.898 29.5415 26.1125 29.1265 24.9199L29.0376 24.6895C28.735 23.9837 28.1908 23.4062 27.4741 22.9736L27.1479 22.7764L27.0972 23.1543C26.9559 24.2069 26.6603 25.054 26.2144 25.7266L26.0142 26.0049C25.3291 26.8782 24.364 27.3869 23.1206 27.5088L22.8687 27.5283C21.8991 27.5813 20.972 27.3641 20.2358 26.9248L20.0913 26.834C19.2565 26.2828 18.7506 25.4632 18.645 24.5049L18.6294 24.3115C18.5746 23.2809 18.9532 22.4024 19.6626 21.7588C20.3317 21.1518 21.3078 20.7432 22.5161 20.6318L22.7603 20.6133C23.7129 20.5587 24.6003 20.6023 25.4175 20.7412L25.7622 20.7998L25.7056 20.4541C25.6038 19.8322 25.4091 19.3051 25.1108 18.8916L24.9771 18.7217C24.4538 18.1142 23.6603 17.8247 22.6685 17.8184H22.6411C21.8952 17.8184 20.8578 18.0135 20.1353 18.9316L18.9653 18.1299C19.8016 16.9996 21.0893 16.377 22.6401 16.377H22.6772C24.059 16.3858 25.1353 16.8192 25.8872 17.6025C26.6419 18.3888 27.0975 19.5557 27.1802 21.0791L27.188 21.2344L27.3306 21.2949L27.6099 21.4219C28.8221 22.0034 29.7161 22.859 30.2241 23.8984L30.3208 24.1084C30.9832 25.6535 31.0654 28.1481 29.1724 30.1982L28.9829 30.3955C27.3784 31.9986 25.4302 32.7305 22.6206 32.75H22.6118C19.6516 32.7295 17.3617 31.7971 15.7642 29.999L15.4536 29.6279C14.1093 27.919 13.3624 25.5659 13.2534 22.6055L13.2397 22.0059V21.9941C13.2635 18.9531 13.9285 16.5172 15.1929 14.7227L15.4536 14.3721C16.9588 12.4587 19.1579 11.4084 22.0288 11.2666L22.6118 11.25H22.6206ZM23.5171 22.0332C23.4062 22.0332 23.294 22.0348 23.1812 22.0381L22.8384 22.0527C21.8197 22.1115 21.1044 22.3893 20.646 22.7969C20.241 23.157 20.0527 23.6047 20.0298 24.0449V24.2334C20.066 24.91 20.4542 25.4007 20.979 25.7031C21.4327 25.9645 21.995 26.091 22.5542 26.0947L22.7935 26.0889C23.4034 26.0554 24.0988 25.9172 24.6685 25.3818C25.2376 24.8467 25.6403 23.9541 25.7563 22.5049L25.7739 22.2871L25.5601 22.2412C24.9332 22.1042 24.2472 22.0332 23.5171 22.0332Z" fill="white" stroke="white" stroke-width="0.5"/>
</svg>
