<svg width="20" height="20" viewBox="0 0 20 20" fill="none" xmlns="http://www.w3.org/2000/svg">
<path d="M10 13C12.9726 13 15.4384 15.1619 15.915 17.999C16.4272 17.9988 16.7684 17.9981 17.0322 17.9766C17.3025 17.9545 17.4037 17.9167 17.4531 17.8916L17.5879 17.8086C17.7149 17.7161 17.8197 17.5942 17.8916 17.4531L17.9121 17.4053C17.9343 17.3436 17.9599 17.2357 17.9766 17.0322C17.9996 16.7496 18 16.3779 18 15.8027V4.19727C18 3.62182 17.9997 3.24974 17.9766 2.9668C17.9599 2.76296 17.9343 2.65546 17.9121 2.59375L17.8916 2.5459C17.8201 2.40547 17.7155 2.284 17.5879 2.19141L17.4531 2.10938C17.4036 2.08414 17.3032 2.04561 17.0322 2.02344C16.8907 2.01187 16.7267 2.00602 16.5264 2.00293L15.7998 2H4.2002C3.62366 2 3.25124 2.00127 2.96778 2.02442C2.76443 2.04103 2.65672 2.06568 2.59473 2.08789L2.5459 2.10938C2.40473 2.18133 2.28365 2.28519 2.19141 2.41211L2.10938 2.5459C2.08422 2.59528 2.04662 2.69598 2.02442 2.96778C2.00127 3.25124 2 3.62366 2 4.2002V15.7998L2.00293 16.5264C2.00602 16.7267 2.01187 16.8907 2.02344 17.0322C2.04561 17.3032 2.08414 17.4036 2.10938 17.4531L2.19141 17.5879C2.284 17.7155 2.40547 17.8201 2.5459 17.8916L2.59375 17.9121C2.65546 17.9343 2.76296 17.9599 2.9668 17.9766C3.23079 17.9981 3.57207 17.9988 4.08399 17.999C4.56053 15.1619 7.0274 13 10 13ZM10 15C8.13616 15 6.57002 16.2748 6.12598 18H13.874C13.43 16.2748 11.8638 15 10 15ZM12 8C12 6.89544 11.1046 6 10 6C8.89544 6 8 6.89544 8 8C8 9.10457 8.89544 10 10 10C11.1046 10 12 9.10457 12 8ZM14 8C14 10.2091 12.2091 12 10 12C7.79087 12 6 10.2091 6 8C6 5.79087 7.79087 4 10 4C12.2091 4 14 5.79087 14 8ZM20 15.8027C20 16.345 20.001 16.8123 19.9697 17.1953C19.9415 17.5407 19.8833 17.885 19.7402 18.2188L19.6729 18.3613C19.4212 18.8552 19.0383 19.2692 18.5684 19.5576L18.3613 19.6729C17.9833 19.8655 17.5902 19.9374 17.1953 19.9697C16.8123 20.001 16.345 20 15.8027 20H4.19727C3.6548 20 3.187 20.0011 2.80372 19.9697C2.45828 19.9415 2.11417 19.8834 1.78028 19.7402L1.6377 19.6729C1.14283 19.4207 0.730094 19.0369 0.442387 18.5674L0.327153 18.3613C0.134481 17.9832 0.0626098 17.5905 0.0302778 17.1953C0.0146035 17.0036 0.0076354 16.7904 0.00391063 16.5576L4.38324e-06 15.7998V4.2002C4.38324e-06 3.65664 -0.00106671 3.18845 0.0302778 2.80469C0.062581 2.40941 0.134373 2.01605 0.327153 1.6377L0.442387 1.43165C0.730572 0.961585 1.14368 0.578905 1.6377 0.327153L1.78028 0.25977C2.1144 0.11656 2.45886 0.0585406 2.80469 0.0302778C3.18845 -0.00106671 3.65664 4.38328e-06 4.2002 4.38328e-06H15.7998L16.5576 0.00391063C16.7904 0.0076354 17.0036 0.0146035 17.1953 0.0302778C17.5905 0.0626098 17.9832 0.134481 18.3613 0.327153L18.5674 0.442387C19.0369 0.730094 19.4207 1.14283 19.6729 1.6377L19.7402 1.78028C19.8834 2.11417 19.9415 2.45828 19.9697 2.80372C20.0011 3.187 20 3.6548 20 4.19727V15.8027Z" fill="#2E2E2E"/>
</svg>
