<svg width="48" height="37" viewBox="0 0 48 37" fill="none" xmlns="http://www.w3.org/2000/svg">
<path d="M18.3563 18.5H5.2V18.5182C5.2 22.078 6.99488 25.3738 10.0018 27.3494L18.2545 32.7665C19.337 33.4766 19.6238 34.906 18.9022 35.9712C18.4488 36.6358 17.7087 37 16.9407 37C16.4967 37 16.0433 36.8725 15.6362 36.6085L7.38346 31.1914C3.0813 28.3691 0.5 23.6257 0.5 18.5182V0.928642C0.5 0.4188 0.916339 0 1.4437 0H18.3563C18.8744 0 19.3 0.409695 19.3 0.928642V17.5714C19.3 18.0903 18.8837 18.5 18.3563 18.5ZM46.5563 18.5H33.4V18.5182C33.4 22.078 35.1949 25.3738 38.2018 27.3494L46.4545 32.7665C47.537 33.4766 47.8238 34.906 47.1022 35.9712C46.6488 36.6358 45.9087 37 45.1407 37C44.6967 37 44.2433 36.8725 43.8362 36.6085L35.5835 31.1914C31.2628 28.36 28.6908 23.6257 28.6908 18.5182V0.928642C28.6908 0.4188 29.1071 0 29.6344 0H46.5563C47.0744 0 47.5 0.409695 47.5 0.928642V17.5714C47.5 18.0903 47.0744 18.5 46.5563 18.5Z" fill="#ED1C24"/>
</svg>
