<svg width="45" height="44" viewBox="0 0 45 44" fill="none" xmlns="http://www.w3.org/2000/svg">
<rect x="0.5" width="44" height="44" rx="22" fill="#ED1C24"/>
<path d="M22.4932 11.25C25.1645 11.2508 27.6816 12.2258 29.6436 14.0068L30.0283 14.374C32.0394 16.3878 33.1464 19.0633 33.1455 21.9102L33.1309 22.457C32.8427 28.0765 28.1804 32.5605 22.4932 32.5605C20.7108 32.5596 18.9545 32.1133 17.3994 31.2646L17.3125 31.2168L17.2158 31.2422L11.8555 32.6475L13.2871 27.417L13.3154 27.3164L13.2627 27.2256C12.3306 25.6102 11.8409 23.7788 11.8418 21.9004L11.8555 21.3535C12.1342 15.916 16.5099 11.5404 21.9463 11.2637L22.4932 11.25ZM22.4971 12.5908C17.3615 12.5909 13.1845 16.7675 13.1826 21.9014L13.1895 22.2881C13.2588 24.1568 13.8393 25.6123 14.7627 27.1035L13.876 30.3438L13.7617 30.7607L14.1807 30.6514L17.5117 29.7773C18.9457 30.6166 20.3425 31.148 22.1211 31.2129L22.4902 31.2197C27.6221 31.2195 31.8019 27.0429 31.8047 21.9082L31.793 21.4287C31.5536 16.6655 27.7428 12.8454 22.9766 12.6025L22.4971 12.5908ZM19.1436 17.125V17.126C19.2877 17.1331 19.2902 17.1185 19.335 17.1396C19.3535 17.1484 19.4023 17.1786 19.4678 17.2939L19.5381 17.4395C19.6511 17.7118 19.8431 18.1821 20.0166 18.6035L20.3857 19.4785C20.4129 19.5326 20.4276 19.5763 20.4316 19.6143C20.4352 19.6479 20.4311 19.6845 20.4082 19.7305C20.3348 19.8766 20.3005 19.9578 20.2402 20.043L20.1689 20.1318L20.167 20.1338C20.0904 20.2232 20.0205 20.3114 19.9551 20.3906L19.7715 20.5967V20.5977C19.7104 20.6587 19.5987 20.7667 19.5439 20.9141C19.4804 21.0853 19.5031 21.2686 19.6123 21.4561V21.4551C19.7549 21.7007 20.2041 22.435 20.876 23.1162L21.1777 23.4043C22.2504 24.3615 23.1756 24.6689 23.4229 24.793C23.5755 24.8695 23.7367 24.9233 23.9023 24.9033C24.0344 24.8873 24.1417 24.8283 24.2305 24.75L24.3135 24.666C24.4692 24.4878 25.004 23.8607 25.1963 23.5723L25.1953 23.5713C25.2594 23.4755 25.2934 23.478 25.2979 23.4775C25.3096 23.4762 25.331 23.4765 25.3691 23.4854L25.5156 23.5322C25.6254 23.572 26.0078 23.7516 26.415 23.9482L27.3506 24.4072C27.5017 24.4828 27.597 24.5244 27.6807 24.5703C27.73 24.5974 27.7534 24.6152 27.7637 24.624C27.7655 24.6334 27.77 24.652 27.7725 24.6826C27.7772 24.7428 27.7766 24.8272 27.7676 24.9316C27.7541 25.0885 27.7216 25.2824 27.6611 25.4951L27.5908 25.7139C27.506 25.9508 27.2379 26.2173 26.8838 26.4443C26.6226 26.6118 26.3494 26.7357 26.1387 26.8008L25.9512 26.8457C25.5586 26.904 25.0869 26.9309 24.5713 26.8086L24.3477 26.7461C24.054 26.6527 23.6998 26.5368 23.2715 26.3682L22.8184 26.1816C20.8246 25.3208 19.3455 23.5949 18.667 22.7012L18.2656 22.1475C18.1992 22.0586 17.9329 21.7038 17.6826 21.2109C17.4298 20.7129 17.2042 20.0946 17.2041 19.4805C17.2041 18.5526 17.5639 17.9856 17.8486 17.6455L18.0918 17.376C18.2852 17.164 18.5083 17.1164 18.6328 17.1162L19.1436 17.125Z" fill="white" stroke="white" stroke-width="0.5"/>
</svg>
