<svg width="45" height="44" viewBox="0 0 45 44" fill="none" xmlns="http://www.w3.org/2000/svg">
<rect x="0.5" width="44" height="44" rx="22" fill="#ED1C24"/>
<path d="M18.6733 12.9952L23.0034 18.7208L23.189 18.9659L23.3911 18.7345L28.4126 12.9952H30.8403L24.4468 20.3019L24.313 20.4552L24.436 20.6173L32.0796 30.7238H26.4839L21.6851 24.4493L21.4995 24.2072L21.2983 24.4366L15.7964 30.7238H13.3657L20.229 22.88L20.3638 22.7257L20.2397 22.5636L12.9224 12.9952H18.6733ZM15.8296 14.6505L27.0151 29.2745L27.0903 29.3732H29.4292L29.1265 28.9728L18.0659 14.3478L17.9907 14.2491H15.522L15.8296 14.6505Z" fill="white" stroke="white" stroke-width="0.5"/>
</svg>
